PathFileType	4	(X/Y/Z)	Walk8.trc
DataRate	CameraRate	NumFrames	NumMarkers	Units	OrigDataRate	OrigDataStartFrame	OrigNumFrames
200.000000	200.000000	9	59	mm	200.000000	487	526
Frame#	Times		LFHD		RFHD		RBHD		C7		T10		CLAV		STRN		RBack		LASI		RASI		RPSI		RACR1		RUA1		RElbow		RFA1		RWRR		RWRU		RCAR		LACR1		LUA1		LFA1		LWRR		LCAR		RTH1		RTH3		RTH2		RTH4		RLFC		LTH1		LTH3		LTH2		LTH4		LLFC		LTB1		LTB3		LTB2		LTB4		LMMAL		LMT1		LMT5		LToe		LLMAL		RTB1		LPSI		LElbow		RTB2		RTB4		LBHD		RMT1		RToe		RTB3		RElbowM		LCAL		LElbowM		LWRU		RLMAL		RCAL		RMT5		RMMAL
			X1	Y1	Z1	X2	Y2	Z2	X3	Y3	Z3	X4	Y4	Z4	X5	Y5	Z5	X6	Y6	Z6	X7	Y7	Z7	X8	Y8	Z8	X9	Y9	Z9	X10	Y10	Z10	X11	Y11	Z11	X12	Y12	Z12	X13	Y13	Z13	X14	Y14	Z14	X15	Y15	Z15	X16	Y16	Z16	X17	Y17	Z17	X18	Y18	Z18	X19	Y19	Z19	X20	Y20	Z20	X21	Y21	Z21	X22	Y22	Z22	X23	Y23	Z23	X24	Y24	Z24	X25	Y25	Z25	X26	Y26	Z26	X27	Y27	Z27	X28	Y28	Z28	X29	Y29	Z29	X30	Y30	Z30	X31	Y31	Z31	X32	Y32	Z32	X33	Y33	Z33	X34	Y34	Z34	X35	Y35	Z35	X36	Y36	Z36	X37	Y37	Z37	X38	Y38	Z38	X39	Y39	Z39	X40	Y40	Z40	X41	Y41	Z41	X42	Y42	Z42	X43	Y43	Z43	X44	Y44	Z44	X45	Y45	Z45	X46	Y46	Z46	X47	Y47	Z47	X48	Y48	Z48	X49	Y49	Z49	X50	Y50	Z50	X51	Y51	Z51	X52	Y52	Z52	X53	Y53	Z53	X54	Y54	Z54	X55	Y55	Z55	X56	Y56	Z56	X57	Y57	Z57	X58	Y58	Z58	X59	Y59	Z59

487	2.435	992.24	1596.1	-51.872	999.11	1596.2	20.956	828.17	1556	56.513	824.3	1430.3	-23.416	790.09	1146	-21.083	950.6	1353.4	-27.612	1028	1129.5	-22.899	780.35	1325.2	72.76	971.33	951.55	-152.11	974.57	960.76	122.07	760.9	987.61	52.484	897.86	1363.3	146.43	864.75	1152.6	206.72	833.85	1049	229.05	887.29	905.14	238.25	901.28	799.25	202.07	852.28	798.33	257.13	895.42	753.87	252.05	889.97	1368	-196.81	878	1158.9	-245.67	927.94	921.57	-258.09	948.02	807.4	-215.23	958.4	764.84	-257.29	915.45	758.92	165.47	981.83	584.03	132.83	1011.9	701.76	130.34	949.7	671.25	148.79	1003.5	496.37	118.43	875.19	742.51	-180.3	891.88	561.08	-140.87	954.76	656.85	-133.88	881.96	646.86	-159.11	889.92	451.71	-127.52	904.91	351	-46.205	860.13	168.75	-45.902	864.72	263.31	-118.59	884.53	257.88	-49.771	819.73	73.054	-12.269	950.04	37.976	-53.968	910.73	22.018	-131.31	996.72	28.934	-83.181	803.75	61.893	-93.486	993.45	371.57	55.013	759.91	986.03	-62.008	865.44	1039.8	-260.52	920.61	312.87	121.4	938.3	296.98	54.372	822.08	1567.4	-71.905	915.61	58.159	75.657	941.41	43.084	112.58	883.72	222.51	53.466	816.64	1028.7	146.3	752.92	29.678	-40.122	831.09	1026.2	-199.32	908.46	801.36	-274.2	788.1	153.9	98.59	739.22	140.32	44.618	859.02	57.324	135.09	823.11	154.18	24.539
488	2.44	998.01	1595.7	-51.507	1004.9	1595.7	21.322	833.81	1555.9	56.793	829.6	1430.2	-23.233	795.36	1145.8	-21.229	955.83	1353.1	-27.536	1033.1	1129.3	-23.326	785.53	1325	72.741	976.99	951.19	-151.83	980.14	960.98	121.68	766.23	987.5	52.404	903.06	1362.8	146.55	868.99	1152.3	206.61	837.74	1048.7	228.78	890.26	904.61	238.29	903.49	798.5	202.33	854.45	798.07	257.34	897.23	753.26	252.37	895.18	1368.1	-196.67	884.24	1159.2	-246.07	936.43	922.4	-258.2	958	808.76	-214.94	969.15	766.29	-256.86	921.43	759.26	165.84	988.91	584.86	132.9	1018.3	702.78	130.61	956.18	671.84	149.06	1011.1	496.99	118.52	879.75	742.07	-180.07	895.58	560.6	-140.62	958.87	656.05	-133.5	886.12	646.35	-158.82	892.96	451.17	-127.19	907.1	350.36	-45.849	860.97	168.45	-45.684	866.5	262.94	-118.38	886.04	257.39	-49.471	819.98	73.014	-12.13	950.07	37.988	-53.948	910.8	22.044	-131.29	996.84	28.922	-83.152	803.91	62.009	-93.415	1003.8	371.75	55.032	765.19	985.79	-62.055	872.43	1039.9	-261.23	932.33	311.22	121.19	950.61	295.73	54.225	827.79	1567.4	-71.675	934.42	56.837	75.975	960.41	42.239	113.07	897.99	219.91	53.178	820.69	1028.5	145.93	752.98	29.86	-40.034	837.93	1025.9	-200.21	918.7	801.93	-274.03	804.05	148.85	97.994	755.77	133.76	43.901	877.4	54.467	135.04	839.3	150	24.074
489	2.445	1003.8	1595.2	-51.139	1010.6	1595.2	21.693	839.45	1555.8	57.084	834.89	1430	-23.027	800.64	1145.5	-21.357	961.04	1352.9	-27.444	1038.2	1129.1	-23.725	790.72	1324.7	72.743	982.65	950.74	-151.5	985.7	961.11	121.33	771.57	987.33	52.336	908.27	1362.3	146.68	873.23	1151.8	206.53	841.65	1048.4	228.53	893.26	904.04	238.35	905.76	797.73	202.59	856.68	797.77	257.53	899.1	752.62	252.68	900.38	1368.2	-196.52	890.47	1159.4	-246.46	944.89	923.21	-258.31	967.96	810.11	-214.65	979.86	767.74	-256.42	927.37	759.53	166.24	995.89	585.6	132.98	1024.5	703.7	130.88	962.61	672.36	149.35	1018.5	497.46	118.65	884.34	741.6	-179.83	899.32	560.09	-140.36	963.01	655.23	-133.13	890.3	645.82	-158.55	896.05	450.61	-126.88	909.34	349.71	-45.504	861.83	168.15	-45.472	868.31	262.55	-118.17	887.58	256.89	-49.18	820.21	72.958	-11.992	950.1	38.001	-53.933	910.86	22.064	-131.27	996.95	28.908	-83.136	804.09	62.132	-93.352	1014	371.85	55.053	770.48	985.51	-62.091	879.42	1040	-261.92	944.07	309.47	121	962.88	294.43	54.089	833.48	1567.5	-71.429	953.35	55.598	76.326	979.53	41.479	113.59	912.33	217.28	52.91	824.79	1028.3	145.58	753.04	30.055	-39.949	844.79	1025.7	-201.06	928.92	802.5	-273.84	820.2	143.75	97.432	772.58	127.16	43.224	895.95	51.653	135.03	855.67	145.81	23.637
490	2.45	1009.5	1594.7	-50.766	1016.3	1594.6	22.067	845.07	1555.6	57.385	840.18	1429.8	-22.799	805.94	1145.2	-21.466	966.26	1352.6	-27.338	1043.4	1128.8	-24.092	795.91	1324.3	72.765	988.3	950.2	-151.13	991.24	961.15	121	776.93	987.11	52.282	913.48	1361.7	146.82	877.47	1151.3	206.49	845.58	1048	228.31	896.3	903.43	238.43	908.1	796.92	202.85	858.96	797.42	257.71	901.04	751.94	252.99	905.57	1368.2	-196.34	896.68	1159.5	-246.83	953.33	924.01	-258.43	977.88	811.47	-214.36	990.54	769.2	-255.97	933.29	759.73	166.66	1002.8	586.25	133.08	1030.7	704.51	131.13	968.97	672.78	149.65	1025.7	497.79	118.81	888.96	741.1	-179.59	903.11	559.54	-140.11	967.17	654.39	-132.77	894.5	645.28	-158.28	899.18	450.02	-126.56	911.62	349.03	-45.171	862.73	167.83	-45.265	870.14	262.15	-117.97	889.15	256.37	-48.898	820.43	72.885	-11.852	950.12	38.014	-53.923	910.91	22.078	-131.26	997.05	28.891	-83.133	804.27	62.263	-93.295	1024	371.89	55.076	775.77	985.18	-62.115	886.4	1040.1	-262.58	955.83	307.63	120.84	975.11	293.08	53.964	839.16	1567.4	-71.168	972.41	54.461	76.699	998.77	40.826	114.13	926.74	214.63	52.664	828.93	1028	145.26	753.1	30.265	-39.866	851.66	1025.4	-201.88	939.11	803.07	-273.64	836.57	138.63	96.907	789.65	120.53	42.589	914.68	48.905	135.04	872.22	141.62	23.23
491	2.455	1015.2	1594.2	-50.389	1022	1593.9	22.445	850.69	1555.4	57.699	845.46	1429.5	-22.55	811.25	1144.8	-21.558	971.48	1352.2	-27.216	1048.5	1128.5	-24.423	801.11	1323.9	72.808	993.93	949.58	-150.72	996.77	961.12	120.71	782.3	986.85	52.246	918.7	1361	146.98	881.72	1150.8	206.47	849.53	1047.6	228.11	899.38	902.78	238.54	910.51	796.09	203.11	861.31	797.03	257.89	903.06	751.24	253.29	910.75	1368.2	-196.15	902.89	1159.7	-247.19	961.74	924.78	-258.56	987.77	812.82	-214.06	1001.2	770.66	-255.51	939.18	759.86	167.1	1009.5	586.8	133.19	1036.8	705.21	131.38	975.27	673.13	149.97	1032.8	497.97	119.02	893.6	740.56	-179.35	906.93	558.95	-139.87	971.36	653.53	-132.42	898.73	644.73	-158.02	902.36	449.41	-126.26	913.93	348.32	-44.847	863.65	167.5	-45.064	871.99	261.73	-117.78	890.75	255.83	-48.623	820.63	72.797	-11.709	950.13	38.023	-53.915	910.95	22.083	-131.26	997.16	28.871	-83.148	804.46	62.402	-93.244	1034	371.85	55.102	781.06	984.81	-62.122	893.37	1040.1	-263.22	967.61	305.72	120.7	987.29	291.7	53.853	844.83	1567.3	-70.892	991.58	53.445	77.081	1018.1	40.3	114.68	941.2	211.98	52.439	833.12	1027.7	144.96	753.16	30.489	-39.784	858.55	1025	-202.65	949.28	803.65	-273.43	853.15	133.5	96.423	806.98	113.91	41.997	933.57	46.246	135.08	888.93	137.46	22.852
492	2.46	1020.9	1593.6	-50.008	1027.7	1593.2	22.827	856.3	1555.1	58.027	850.75	1429.2	-22.279	816.57	1144.4	-21.63	976.7	1351.8	-27.078	1053.7	1128.1	-24.718	806.32	1323.4	72.871	999.53	948.88	-150.29	1002.3	960.99	120.45	787.7	986.53	52.229	923.92	1360.3	147.16	885.97	1150.3	206.48	853.52	1047.1	227.95	902.51	902.09	238.66	912.99	795.24	203.37	863.71	796.59	258.06	905.15	750.52	253.6	915.93	1368.2	-195.94	909.08	1159.8	-247.53	970.12	925.52	-258.69	997.62	814.17	-213.76	1011.7	772.11	-255.05	945.05	759.92	167.55	1016.2	587.25	133.31	1042.9	705.79	131.62	981.5	673.38	150.31	1039.7	498	119.26	898.25	739.99	-179.09	910.79	558.33	-139.62	975.57	652.64	-132.08	902.98	644.16	-157.77	905.57	448.77	-125.95	916.28	347.6	-44.532	864.59	167.16	-44.87	873.87	261.29	-117.59	892.38	255.28	-48.355	820.83	72.697	-11.561	950.15	38.029	-53.909	910.98	22.08	-131.27	997.26	28.847	-83.181	804.65	62.549	-93.195	1043.8	371.76	55.131	786.36	984.4	-62.11	900.34	1040.1	-263.82	979.4	303.75	120.58	999.43	290.29	53.757	850.49	1567.2	-70.6	1010.8	52.57	77.456	1037.6	39.924	115.2	955.72	209.33	52.238	837.36	1027.2	144.7	753.23	30.727	-39.701	865.46	1024.6	-203.39	959.41	804.22	-273.21	869.93	128.39	95.982	824.56	107.32	41.453	952.63	43.7	135.12	905.79	133.36	22.507
493	2.465	1026.6	1593	-49.623	1033.4	1592.5	23.212	861.9	1554.7	58.37	856.03	1428.8	-21.987	821.93	1143.9	-21.682	981.92	1351.4	-26.923	1059	1127.7	-24.974	811.53	1322.8	72.953	1005.1	948.11	-149.84	1007.8	960.79	120.23	793.11	986.18	52.236	929.14	1359.6	147.35	890.25	1149.7	206.52	857.53	1046.6	227.81	905.67	901.37	238.81	915.55	794.36	203.63	866.19	796.11	258.22	907.31	749.76	253.9	921.1	1368.1	-195.7	915.26	1159.8	-247.84	978.47	926.24	-258.83	1007.4	815.51	-213.46	1022.3	773.57	-254.59	950.89	759.92	168.03	1022.7	587.59	133.45	1048.9	706.25	131.85	987.66	673.55	150.66	1046.5	497.88	119.53	902.92	739.39	-178.84	914.67	557.68	-139.37	979.79	651.74	-131.75	907.24	643.58	-157.53	908.81	448.1	-125.65	918.67	346.85	-44.224	865.55	166.81	-44.684	875.76	260.84	-117.39	894.04	254.71	-48.094	821.02	72.592	-11.406	950.16	38.029	-53.903	910.99	22.068	-131.28	997.35	28.816	-83.236	804.86	62.703	-93.149	1053.4	371.61	55.165	791.66	983.95	-62.076	907.3	1040	-264.4	991.2	301.73	120.49	1011.5	288.87	53.676	856.13	1567	-70.289	1030.2	51.855	77.809	1057.1	39.72	115.69	970.29	206.72	52.06	841.64	1026.8	144.47	753.3	30.982	-39.616	872.39	1024.2	-204.08	969.51	804.8	-272.97	886.92	123.33	95.587	842.37	100.81	40.959	971.85	41.293	135.17	922.8	129.33	22.195
494	2.47	1032.3	1592.3	-49.234	1039.1	1591.8	23.601	867.5	1554.4	58.729	861.31	1428.4	-21.676	827.32	1143.4	-21.71	987.15	1350.9	-26.75	1064.2	1127.3	-25.189	816.75	1322.2	73.053	1010.6	947.26	-149.4	1013.3	960.5	120.05	798.55	985.77	52.268	934.38	1358.8	147.55	894.55	1149.1	206.58	861.58	1046.1	227.7	908.89	900.62	238.98	918.18	793.45	203.9	868.74	795.59	258.39	909.56	748.97	254.2	926.27	1367.9	-195.45	921.43	1159.8	-248.14	986.8	926.92	-258.97	1017.2	816.84	-213.16	1032.8	775.01	-254.12	956.71	759.85	168.51	1029.1	587.82	133.61	1054.9	706.58	132.08	993.76	673.62	151.04	1053.1	497.61	119.84	907.59	738.76	-178.57	918.57	556.99	-139.13	984.04	650.81	-131.44	911.5	642.97	-157.29	912.09	447.41	-125.35	921.08	346.09	-43.923	866.53	166.44	-44.506	877.66	260.37	-117.2	895.72	254.13	-47.838	821.22	72.488	-11.246	950.17	38.023	-53.894	910.98	22.046	-131.3	997.44	28.778	-83.313	805.07	62.865	-93.102	1063	371.4	55.205	796.96	983.47	-62.015	914.26	1039.9	-264.94	1003	299.68	120.42	1023.6	287.46	53.612	861.76	1566.8	-69.96	1049.6	51.321	78.124	1076.7	39.713	116.12	984.9	204.15	51.907	845.97	1026.2	144.28	753.37	31.253	-39.529	879.34	1023.8	-204.73	979.58	805.37	-272.72	904.11	118.34	95.242	860.42	94.388	40.522	991.23	39.049	135.22	939.93	125.4	21.918
495	2.475	1038	1591.6	-48.84	1044.8	1591	23.994	873.09	1553.9	59.105	866.59	1427.9	-21.345	832.75	1142.8	-21.713	992.39	1350.3	-26.561	1069.5	1126.8	-25.364	821.98	1321.6	73.17	1016.1	946.35	-148.95	1018.7	960.12	119.9	804	985.33	52.328	939.62	1358	147.78	898.88	1148.4	206.66	865.67	1045.5	227.62	912.16	899.83	239.18	920.89	792.52	204.18	871.36	795.02	258.56	911.88	748.15	254.5	931.44	1367.7	-195.18	927.59	1159.7	-248.41	995.1	927.59	-259.11	1027	818.15	-212.87	1043.2	776.44	-253.66	962.52	759.71	169.02	1035.4	587.94	133.78	1060.8	706.79	132.29	999.78	673.6	151.43	1059.5	497.2	120.19	912.27	738.09	-178.3	922.5	556.27	-138.88	988.29	649.86	-131.15	915.78	642.34	-157.06	915.38	446.69	-125.06	923.52	345.3	-43.626	867.52	166.07	-44.336	879.57	259.9	-117	897.42	253.55	-47.586	821.43	72.391	-11.079	950.19	38.012	-53.88	910.97	22.018	-131.32	997.51	28.731	-83.412	805.29	63.036	-93.053	1072.3	371.15	55.253	802.27	982.95	-61.925	921.23	1039.8	-265.44	1014.8	297.61	120.39	1035.6	286.06	53.568	867.37	1566.5	-69.609	1069.1	50.986	78.386	1096.4	39.925	116.47	999.54	201.66	51.78	850.35	1025.7	144.12	753.45	31.543	-39.438	886.31	1023.3	-205.33	989.61	805.94	-272.46	921.49	113.44	94.949	878.67	88.095	40.146	1010.8	36.994	135.25	957.17	121.61	21.676
